<svg xmlns="http://www.w3.org/2000/svg" xmlns:xlink="http://www.w3.org/1999/xlink" width="132.553" height="111.978" xml:space="preserve"><defs><path id="a" d="M60.365 0c-5.952 0-11.31 2.213-15.494 6.401-4.197 4.187-6.415 9.551-6.415 15.51v37.985c0 14.303 5.144 26.672 15.277 36.753 10.112 10.173 22.498 15.329 36.805 15.329 13.394 0 25.099-4.535 34.825-13.48 1.037-.953 1.099-2.57.102-3.566l-.102-.104c-.943-.942-2.447-.936-3.43-.033-8.778 8.054-19.328 12.136-31.395 12.136-12.915 0-24.095-4.656-33.237-13.849-9.154-9.11-13.798-20.276-13.798-33.186V21.911c0-4.589 1.706-8.718 4.935-11.939 3.218-3.221 7.345-4.925 11.927-4.925 3.822 0 7.326 1.186 10.255 3.451 1.016.786 2.447.728 3.356-.181 1.055-1.055.999-2.822-.173-3.741C69.975 1.572 65.381 0 60.365 0z"/></defs><clipPath id="b"><use xlink:href="#a" overflow="visible"/></clipPath><linearGradient id="c" gradientUnits="userSpaceOnUse" x1="0" y1="111.853" x2="1" y2="111.853" gradientTransform="scale(-102.1943 102.1943) rotate(-63.574 -89.921 57.315)"><stop offset="0" style="stop-color:#16bae7"/><stop offset=".001" style="stop-color:#16bae7"/><stop offset="1" style="stop-color:#005d89"/></linearGradient><path clip-path="url(#b)" fill="url(#c)" d="M55.887 147.052-6.171 22.179l115.202-57.253L171.09 89.799z"/><g><defs><path id="d" d="M0 0h270.553v111.978H0z"/></defs><clipPath id="e"><use xlink:href="#d" overflow="visible"/></clipPath><path clip-path="url(#e)" fill="#005D89" d="M90.538 99.1c-10.756 0-20.068-3.88-27.676-11.53-7.755-7.715-11.528-16.77-11.528-27.674V21.912c0-2.497.885-4.649 2.632-6.396 1.753-1.75 3.907-2.638 6.399-2.638 2.497 0 4.648.888 6.396 2.635 1.75 1.75 2.637 3.902 2.637 6.399v37.984c0 5.802 2.085 10.828 6.199 14.94 4.113 4.114 9.139 6.199 14.941 6.199 5.76 0 10.766-2.085 14.88-6.199 4.114-4.115 6.199-9.142 6.199-14.94V17.039c0-1.395 1.129-2.523 2.524-2.523s2.523 1.128 2.523 2.523v42.857c0 7.184-2.583 13.413-7.677 18.51-5.095 5.094-11.301 7.677-18.449 7.677-7.187 0-13.416-2.583-18.51-7.677-5.094-5.095-7.677-11.323-7.677-18.51V21.912c0-1.156-.358-2.029-1.159-2.83-.799-.798-1.671-1.156-2.827-1.156-1.154 0-2.026.358-2.832 1.161-.796.796-1.151 1.669-1.151 2.825v37.984c0 9.492 3.288 17.376 10.049 24.104 6.637 6.672 14.744 10.052 24.107 10.052 9.453 0 17.315-3.288 24.044-10.05 6.766-6.732 10.051-14.617 10.051-24.106V17.039c0-1.395 1.129-2.523 2.524-2.523s2.524 1.128 2.524 2.523v42.857c0 10.9-3.771 19.954-11.53 27.677C110.436 95.327 101.4 99.1 90.538 99.1"/><path clip-path="url(#e)" fill="#16BAE7" d="M130.001 92.292c-.328 0-.655-.053-.958-.178a2.206 2.206 0 0 1-.807-.554 2.229 2.229 0 0 1-.557-.809 2.544 2.544 0 0 1-.202-.959c0-.354.077-.655.202-.983.129-.303.303-.582.557-.809a1.59 1.59 0 0 1 .377-.327c.126-.077.279-.153.43-.229.152-.051.303-.1.48-.128a2.502 2.502 0 0 1 2.27.684c.229.227.431.506.557.809.126.328.175.63.175.983 0 .328-.049.654-.175.959a2.538 2.538 0 0 1-.557.809 2.549 2.549 0 0 1-.806.554 2.702 2.702 0 0 1-.986.178"/><path clip-path="url(#e)" fill="#005D89" d="M21.034 99.1H6.674c-1.389 0-2.631-.381-3.724-1.144a6.357 6.357 0 0 1-2.379-2.913c-.356-.773-.534-1.64-.534-2.599 0-1.367.375-2.606 1.124-3.715a6.284 6.284 0 0 1 2.914-2.422 6.509 6.509 0 0 1 2.599-.519c.503 0 .94.184 1.309.547.368.365.552.8.552 1.307 0 .53-.184.978-.552 1.343a1.804 1.804 0 0 1-1.309.547c-.627 0-1.18.166-1.659.498a2.9 2.9 0 0 0-1.273 2.414c0 .553.16 1.094.479 1.623.357.528.8.885 1.328 1.069a2.41 2.41 0 0 0 1.125.258h14.36c.578 0 1.119-.178 1.623-.535a2.922 2.922 0 0 0 1.05-1.272c.148-.332.221-.713.221-1.143 0-.602-.16-1.143-.479-1.622-.283-.454-.712-.805-1.29-1.051a3.375 3.375 0 0 0-1.125-.239c-.503 0-.94-.183-1.309-.547a1.82 1.82 0 0 1-.553-1.343c0-.507.185-.941.553-1.307a1.808 1.808 0 0 1 1.309-.547c.652 0 1.291.1 1.917.296a7.34 7.34 0 0 1 1.77.832 6.286 6.286 0 0 1 2.416 2.957c.355.839.533 1.695.533 2.57 0 1.303-.374 2.55-1.124 3.743-.725 1.081-1.708 1.874-2.949 2.378a6.382 6.382 0 0 1-2.563.536M25.827 81.896H7.282a7.127 7.127 0 0 1-2.129-.321 6.742 6.742 0 0 1-1.908-.932c-1.229-.811-2.108-1.881-2.637-3.208a7.281 7.281 0 0 1-.57-2.839c0-1.511.411-2.869 1.234-4.073.811-1.204 1.868-2.07 3.171-2.6.959-.406 1.906-.608 2.839-.608h18.545c.505 0 .938.185 1.3.554.363.369.543.816.543 1.346 0 .504-.18.938-.543 1.299a1.77 1.77 0 0 1-1.3.544h-7.632a.682.682 0 0 0-.489.185.659.659 0 0 0-.193.498v5.732c0 .198.065.36.193.489.13.129.292.194.489.194h7.632c.505 0 .938.181 1.3.543.363.362.543.809.543 1.337 0 .504-.18.938-.543 1.308a1.755 1.755 0 0 1-1.3.552m-12.683-3.74c.197 0 .35-.065.46-.194a.717.717 0 0 0 .167-.489V71.74a.718.718 0 0 0-.167-.488.572.572 0 0 0-.46-.194H7.282c-.75 0-1.401.203-1.954.609a3.451 3.451 0 0 0-1.29 1.548 3.63 3.63 0 0 0-.296 1.382c0 .677.197 1.347.59 2.01.381.578.91 1.009 1.586 1.29.196.1.418.166.664.203s.479.057.7.057h5.862zM25.827 62.667H7.245c-.725 0-1.435-.108-2.129-.323s-1.331-.525-1.908-.931c-1.229-.812-2.108-1.88-2.637-3.207A7.287 7.287 0 0 1 0 55.366c0-1.512.412-2.87 1.235-4.075.812-1.204 1.869-2.07 3.171-2.599.958-.405 1.905-.608 2.839-.608h18.582c.504 0 .937.184 1.3.553.363.369.543.805.543 1.309s-.18.943-.543 1.318a1.746 1.746 0 0 1-1.3.562H7.245c-.75 0-1.401.203-1.954.609A3.46 3.46 0 0 0 4 53.983c-.196.479-.295.94-.295 1.383 0 .675.197 1.345.59 2.009.381.578.91 1.008 1.586 1.291.197.098.418.165.663.202.246.036.48.055.701.055h18.582c.504 0 .937.182 1.3.544.363.363.543.808.543 1.337 0 .504-.18.94-.543 1.309a1.764 1.764 0 0 1-1.3.554M25.827 43.159H7.282a7.16 7.16 0 0 1-2.129-.322 6.767 6.767 0 0 1-1.908-.931c-1.229-.811-2.108-1.881-2.637-3.208a7.289 7.289 0 0 1-.57-2.839c0-1.511.411-2.869 1.234-4.074.811-1.204 1.868-2.071 3.171-2.599.959-.406 1.906-.608 2.839-.608h18.545c.505 0 .938.184 1.3.552.363.369.543.818.543 1.346 0 .504-.18.938-.543 1.299a1.766 1.766 0 0 1-1.3.544h-7.632a.682.682 0 0 0-.489.185.659.659 0 0 0-.193.498v5.733c0 .197.065.359.193.489.13.129.292.193.489.193h7.632c.505 0 .938.182 1.3.543.363.364.543.809.543 1.337 0 .504-.18.94-.543 1.309a1.756 1.756 0 0 1-1.3.553m-12.683-3.742c.197 0 .35-.064.46-.193a.72.72 0 0 0 .167-.489v-5.733a.72.72 0 0 0-.167-.489.572.572 0 0 0-.46-.194H7.282c-.75 0-1.401.203-1.954.609a3.454 3.454 0 0 0-1.29 1.549 3.63 3.63 0 0 0-.296 1.382c0 .676.197 1.346.59 2.01.381.577.91 1.007 1.586 1.29.196.098.418.166.664.202.246.037.479.056.7.056h5.862zM25.79 23.817H1.881c-.504 0-.938-.19-1.3-.572a1.865 1.865 0 0 1-.543-1.326c0-.504.181-.938.543-1.301a1.775 1.775 0 0 1 1.3-.543h21.402a.62.62 0 0 0 .452-.194.662.662 0 0 0 .193-.488V14.71c0-.503.185-.936.553-1.299.37-.363.806-.544 1.309-.544.529 0 .975.181 1.337.544.363.363.543.796.543 1.299v7.209c0 .503-.18.946-.543 1.326a1.769 1.769 0 0 1-1.337.572"/></g></svg>
